# xmcd
#
# Track frame offsets: 
#        150
#        13254
#        25026
#        36772
#        57131
#        74739
#        93945
#        111407
#        127761
#        146755
#        163677
#        178349
#        187857
#        203258
#
# Disc length: 2952 seconds
#
# Revision: 0
# Processed by: cddbd v1.4PL0 Copyright (c) Steve Scherf et al.
# Submitted via: ExactAudioCopy v0.95a3
#
DISCID=bd0b860e
DTITLE=Nelly Morgan and the Sudists - Wild Country Road
DYEAR=2003
DGENRE=Country
TTITLE0=Rock n'Roll Rocket
TTITLE1=One of the Road
TTITLE2=Proud Mary
TTITLE3=Rose of Summer Dreams
TTITLE4=Hey Hello Texas
TTITLE5=Never You Come Around
TTITLE6=Blanket on the Ground
TTITLE7=Louisiana Burning Nights
TTITLE8=Stawberry Winer
TTITLE9=The Letter
TTITLE10=Loving Beach
TTITLE11=It's So Easy
TTITLE12=Let Me Hear
TTITLE13=Tomorrow Flower
EXTD=
EXTT0=
EXTT1=
EXTT2=
EXTT3=
EXTT4=
EXTT5=
EXTT6=
EXTT7=
EXTT8=
EXTT9=
EXTT10=
EXTT11=
EXTT12=
EXTT13=
PLAYORDER=
